PathFileType	4	(X/Y/Z)	 New Session 101.trc
DataRate	CameraRate	NumFrames	NumMarkers	Units	OrigDataRate	OrigDataStartFrame	OrigNumFrames
100	100	29	14	m	100	169	337
Frame#	Time	C7			T8			IJ			PX			AA			AC			AI			TS			SC			GH			LE			ME			US			RS			
		X1	Y1	Z1	X2	Y2	Z2	X3	Y3	Z3	X4	Y4	Z4	X5	Y5	Z5	X6	Y6	Z6	X7	Y7	Z7	X8	Y8	Z8	X9	Y9	Z9	X10	Y10	Z10	X11	Y11	Z11	X12	Y12	Z12	X13	Y13	Z13	X14	Y14	Z14	
169	1.6900	0.019902	0.108173	0.150211	0.029215	-0.106087	0.229651	-0.001284	0.000286	-0.007604	0.000324	-0.142154	-0.071683	0.219492	0.012570	0.133527	0.167269	0.054378	0.063816	0.106464	0.032265	0.193312	0.111447	-0.085616	0.226011	0.023656	0.008877	-0.003821	0.230466	0.026918	0.094081	0.320085	-0.246819	0.024155	0.237619	-0.284632	-0.008486	0.407886	-0.495914	-0.066023	0.443873	-0.449266	-0.120241	
170	1.7000	0.019929	0.108199	0.150203	0.029196	-0.106015	0.229615	-0.001286	0.000274	-0.007664	0.000334	-0.142205	-0.071697	0.219482	0.012571	0.133464	0.167281	0.054363	0.063738	0.106469	0.032295	0.193227	0.111460	-0.085589	0.225926	0.023642	0.008873	-0.003880	0.230457	0.026898	0.094009	0.320086	-0.246865	0.024165	0.237589	-0.284686	-0.008342	0.407882	-0.495954	-0.065990	0.443877	-0.449293	-0.120217	
171	1.7100	0.019961	0.108222	0.150182	0.029188	-0.105947	0.229576	-0.001293	0.000272	-0.007723	0.000343	-0.142253	-0.071712	0.219484	0.012568	0.133386	0.167294	0.054345	0.063651	0.106487	0.032320	0.193135	0.111478	-0.085561	0.225836	0.023628	0.008874	-0.003939	0.230441	0.026869	0.093916	0.320086	-0.246914	0.024168	0.237561	-0.284741	-0.008205	0.407896	-0.495996	-0.065935	0.443893	-0.449329	-0.120183	
172	1.7200	0.019997	0.108239	0.150158	0.029192	-0.105893	0.229537	-0.001306	0.000278	-0.007780	0.000349	-0.142297	-0.071729	0.219499	0.012568	0.133304	0.167309	0.054324	0.063559	0.106507	0.032344	0.193047	0.111501	-0.085533	0.225748	0.023615	0.008880	-0.003995	0.230421	0.026834	0.093808	0.320084	-0.246956	0.024165	0.237538	-0.284795	-0.008082	0.407924	-0.496039	-0.065862	0.443914	-0.449373	-0.120141	
173	1.7300	0.020035	0.108255	0.150146	0.029203	-0.105847	0.229499	-0.001321	0.000295	-0.007834	0.000351	-0.142336	-0.071747	0.219522	0.012573	0.133224	0.167323	0.054302	0.063468	0.106525	0.032371	0.192966	0.111527	-0.085502	0.225667	0.023602	0.008893	-0.004047	0.230402	0.026798	0.093695	0.320084	-0.246985	0.024154	0.237519	-0.284846	-0.007980	0.407962	-0.496085	-0.065772	0.443934	-0.449417	-0.120092	
174	1.7400	0.020072	0.108272	0.150160	0.029216	-0.105797	0.229461	-0.001336	0.000318	-0.007884	0.000349	-0.142370	-0.071766	0.219545	0.012582	0.133148	0.167338	0.054281	0.063381	0.106537	0.032403	0.192890	0.111556	-0.085470	0.225597	0.023591	0.008910	-0.004093	0.230392	0.026768	0.093588	0.320085	-0.246997	0.024137	0.237506	-0.284893	-0.007906	0.408008	-0.496130	-0.065668	0.443948	-0.449460	-0.120042	
175	1.7500	0.020110	0.108291	0.150207	0.029228	-0.105742	0.229417	-0.001348	0.000346	-0.007929	0.000346	-0.142401	-0.071785	0.219569	0.012589	0.133078	0.167355	0.054261	0.063300	0.106544	0.032435	0.192815	0.111586	-0.085437	0.225537	0.023580	0.008933	-0.004133	0.230391	0.026743	0.093492	0.320087	-0.247002	0.024117	0.237499	-0.284932	-0.007866	0.408056	-0.496177	-0.065554	0.443961	-0.449504	-0.119987	
176	1.7600	0.020152	0.108311	0.150282	0.029237	-0.105694	0.229362	-0.001353	0.000376	-0.007972	0.000346	-0.142433	-0.071804	0.219594	0.012591	0.133014	0.167374	0.054244	0.063226	0.106546	0.032459	0.192745	0.111616	-0.085404	0.225488	0.023571	0.008961	-0.004167	0.230400	0.026725	0.093408	0.320088	-0.247010	0.024100	0.237497	-0.284962	-0.007865	0.408102	-0.496224	-0.065437	0.443977	-0.449554	-0.119926	
177	1.7700	0.020200	0.108325	0.150373	0.029239	-0.105655	0.229304	-0.001348	0.000404	-0.008010	0.000352	-0.142466	-0.071822	0.219618	0.012583	0.132956	0.167396	0.054228	0.063160	0.106550	0.032469	0.192680	0.111646	-0.085372	0.225447	0.023564	0.008992	-0.004196	0.230417	0.026712	0.093338	0.320090	-0.247027	0.024087	0.237500	-0.284981	-0.007905	0.408141	-0.496270	-0.065323	0.443999	-0.449607	-0.119861	
178	1.7800	0.020256	0.108332	0.150466	0.029236	-0.105622	0.229257	-0.001331	0.000430	-0.008046	0.000366	-0.142500	-0.071840	0.219642	0.012569	0.132905	0.167422	0.054215	0.063101	0.106559	0.032470	0.192621	0.111675	-0.085342	0.225413	0.023561	0.009027	-0.004219	0.230439	0.026702	0.093281	0.320091	-0.247054	0.024081	0.237509	-0.284988	-0.007986	0.408170	-0.496317	-0.065214	0.444021	-0.449660	-0.119797	
179	1.7900	0.020318	0.108333	0.150549	0.029234	-0.105593	0.229223	-0.001301	0.000452	-0.008077	0.000388	-0.142532	-0.071858	0.219660	0.012555	0.132862	0.167453	0.054206	0.063050	0.106573	0.032470	0.192570	0.111704	-0.085315	0.225384	0.023564	0.009067	-0.004237	0.230465	0.026696	0.093237	0.320093	-0.247085	0.024078	0.237521	-0.284984	-0.008107	0.408190	-0.496363	-0.065111	0.444042	-0.449710	-0.119733	
180	1.8000	0.020380	0.108330	0.150621	0.029235	-0.105566	0.229194	-0.001259	0.000471	-0.008102	0.000418	-0.142558	-0.071875	0.219671	0.012547	0.132825	0.167487	0.054202	0.063007	0.106587	0.032480	0.192527	0.111732	-0.085291	0.225359	0.023573	0.009110	-0.004249	0.230494	0.026693	0.093204	0.320094	-0.247114	0.024079	0.237535	-0.284967	-0.008263	0.408203	-0.496409	-0.065012	0.444053	-0.449758	-0.119672	
181	1.8100	0.020439	0.108328	0.150687	0.029245	-0.105546	0.229161	-0.001207	0.000489	-0.008121	0.000455	-0.142575	-0.071891	0.219675	0.012544	0.132793	0.167525	0.054201	0.062972	0.106600	0.032500	0.192491	0.111760	-0.085271	0.225337	0.023591	0.009157	-0.004254	0.230523	0.026691	0.093181	0.320093	-0.247137	0.024084	0.237551	-0.284940	-0.008451	0.408212	-0.496453	-0.064915	0.444040	-0.449810	-0.119611	
182	1.8200	0.020492	0.108325	0.150753	0.029264	-0.105534	0.229124	-0.001149	0.000506	-0.008131	0.000496	-0.142583	-0.071905	0.219681	0.012547	0.132765	0.167564	0.054202	0.062946	0.106616	0.032521	0.192458	0.111787	-0.085257	0.225321	0.023616	0.009206	-0.004250	0.230549	0.026686	0.093163	0.320092	-0.247157	0.024096	0.237567	-0.284905	-0.008662	0.408221	-0.496497	-0.064820	0.444003	-0.449869	-0.119556	
183	1.8300	0.020542	0.108320	0.150830	0.029288	-0.105532	0.229086	-0.001090	0.000525	-0.008130	0.000539	-0.142582	-0.071914	0.219698	0.012550	0.132747	0.167603	0.054202	0.062932	0.106639	0.032530	0.192430	0.111813	-0.085248	0.225312	0.023648	0.009256	-0.004234	0.230572	0.026675	0.093151	0.320095	-0.247182	0.024117	0.237580	-0.284863	-0.008888	0.408234	-0.496541	-0.064722	0.443960	-0.449931	-0.119504	
184	1.8400	0.020591	0.108307	0.150923	0.029309	-0.105541	0.229055	-0.001031	0.000548	-0.008117	0.000581	-0.142573	-0.071916	0.219729	0.012548	0.132744	0.167642	0.054201	0.062932	0.106668	0.032518	0.192418	0.111835	-0.085247	0.225312	0.023684	0.009307	-0.004207	0.230596	0.026660	0.093148	0.320102	-0.247217	0.024145	0.237589	-0.284819	-0.009115	0.408252	-0.496584	-0.064624	0.443936	-0.449987	-0.119454	
185	1.8500	0.020644	0.108285	0.151038	0.029327	-0.105560	0.229038	-0.000977	0.000575	-0.008089	0.000619	-0.142558	-0.071908	0.219771	0.012535	0.132760	0.167679	0.054198	0.062947	0.106704	0.032489	0.192434	0.111852	-0.085255	0.225324	0.023724	0.009358	-0.004165	0.230624	0.026642	0.093162	0.320110	-0.247260	0.024179	0.237593	-0.284775	-0.009332	0.408273	-0.496624	-0.064528	0.443932	-0.450036	-0.119407	
186	1.8600	0.020705	0.108254	0.151174	0.029352	-0.105589	0.229046	-0.000929	0.000607	-0.008046	0.000651	-0.142537	-0.071891	0.219815	0.012512	0.132798	0.167714	0.054192	0.062980	0.106746	0.032453	0.192480	0.111860	-0.085272	0.225350	0.023766	0.009409	-0.004110	0.230659	0.026624	0.093195	0.320116	-0.247303	0.024215	0.237593	-0.284734	-0.009527	0.408293	-0.496662	-0.064438	0.443934	-0.450078	-0.119363	
187	1.8700	0.020774	0.108214	0.151331	0.029399	-0.105625	0.229085	-0.000885	0.000645	-0.007986	0.000681	-0.142510	-0.071865	0.219854	0.012482	0.132863	0.167749	0.054186	0.063033	0.106790	0.032421	0.192555	0.111859	-0.085300	0.225393	0.023808	0.009461	-0.004041	0.230700	0.026607	0.093250	0.320117	-0.247334	0.024251	0.237588	-0.284699	-0.009691	0.408308	-0.496695	-0.064359	0.443927	-0.450111	-0.119322	
188	1.8800	0.020849	0.108167	0.151507	0.029467	-0.105673	0.229143	-0.000846	0.000689	-0.007908	0.000709	-0.142476	-0.071832	0.219888	0.012453	0.132955	0.167785	0.054180	0.063108	0.106829	0.032391	0.192651	0.111848	-0.085339	0.225453	0.023852	0.009512	-0.003958	0.230744	0.026591	0.093325	0.320114	-0.247350	0.024287	0.237578	-0.284671	-0.009817	0.408315	-0.496724	-0.064294	0.443908	-0.450134	-0.119288	
189	1.8900	0.020928	0.108115	0.151697	0.029524	-0.105731	0.229193	-0.000810	0.000738	-0.007815	0.000738	-0.142437	-0.071791	0.219918	0.012423	0.133067	0.167823	0.054172	0.063207	0.106862	0.032359	0.192762	0.111831	-0.085389	0.225532	0.023897	0.009563	-0.003862	0.230789	0.026572	0.093421	0.320109	-0.247358	0.024321	0.237564	-0.284651	-0.009900	0.408313	-0.496749	-0.064246	0.443887	-0.450147	-0.119256	
190	1.9000	0.021007	0.108062	0.151897	0.029532	-0.105799	0.229226	-0.000774	0.000789	-0.007706	0.000771	-0.142393	-0.071740	0.219948	0.012389	0.133191	0.167865	0.054164	0.063330	0.106894	0.032316	0.192884	0.111809	-0.085450	0.225630	0.023944	0.009612	-0.003754	0.230833	0.026548	0.093538	0.320105	-0.247370	0.024359	0.237548	-0.284639	-0.009941	0.408301	-0.496771	-0.064213	0.443869	-0.450156	-0.119225	
191	1.9100	0.021082	0.108006	0.152104	0.029514	-0.105880	0.229260	-0.000737	0.000841	-0.007581	0.000808	-0.142348	-0.071675	0.219977	0.012344	0.133323	0.167912	0.054153	0.063477	0.106934	0.032254	0.193017	0.111790	-0.085520	0.225746	0.023994	0.009658	-0.003635	0.230878	0.026519	0.093677	0.320102	-0.247393	0.024404	0.237530	-0.284635	-0.009941	0.408280	-0.496789	-0.064195	0.443850	-0.450169	-0.119197	
192	1.9200	0.021153	0.107948	0.152315	0.029502	-0.105972	0.229322	-0.000697	0.000891	-0.007442	0.000849	-0.142302	-0.071596	0.220005	0.012286	0.133463	0.167963	0.054141	0.063646	0.106979	0.032174	0.193162	0.111776	-0.085598	0.225879	0.024046	0.009701	-0.003505	0.230924	0.026486	0.093842	0.320100	-0.247428	0.024462	0.237511	-0.284637	-0.009905	0.408249	-0.496805	-0.064193	0.443828	-0.450185	-0.119175	
193	1.9300	0.021215	0.107892	0.152535	0.029509	-0.106067	0.229418	-0.000654	0.000937	-0.007288	0.000891	-0.142254	-0.071501	0.220030	0.012218	0.133616	0.168018	0.054128	0.063837	0.107019	0.032087	0.193324	0.111770	-0.085683	0.226026	0.024100	0.009741	-0.003362	0.230973	0.026449	0.094032	0.320098	-0.247468	0.024534	0.237492	-0.284643	-0.009837	0.408210	-0.496816	-0.064207	0.443801	-0.450201	-0.119160	
194	1.9400	0.021268	0.107841	0.152768	0.029538	-0.106163	0.229536	-0.000610	0.000977	-0.007119	0.000932	-0.142203	-0.071392	0.220057	0.012149	0.133784	0.168074	0.054115	0.064045	0.107046	0.032004	0.193505	0.111775	-0.085773	0.226184	0.024155	0.009777	-0.003208	0.231025	0.026411	0.094248	0.320096	-0.247500	0.024617	0.237475	-0.284652	-0.009744	0.408164	-0.496822	-0.064235	0.443772	-0.450204	-0.119154	
195	1.9500	0.021311	0.107796	0.153017	0.029574	-0.106259	0.229654	-0.000564	0.001011	-0.006933	0.000970	-0.142148	-0.071273	0.220087	0.012088	0.133968	0.168132	0.054105	0.064267	0.107055	0.031932	0.193707	0.111788	-0.085866	0.226349	0.024210	0.009809	-0.003040	0.231081	0.026374	0.094489	0.320093	-0.247522	0.024707	0.237460	-0.284661	-0.009634	0.408112	-0.496821	-0.064273	0.443743	-0.450191	-0.119157	
196	1.9600	0.021347	0.107754	0.153282	0.029602	-0.106358	0.229769	-0.000520	0.001038	-0.006730	0.001005	-0.142091	-0.071147	0.220123	0.012032	0.134172	0.168188	0.054096	0.064501	0.107048	0.031864	0.193929	0.111808	-0.085964	0.226519	0.024265	0.009838	-0.002859	0.231139	0.026339	0.094752	0.320089	-0.247535	0.024799	0.237449	-0.284668	-0.009513	0.408059	-0.496814	-0.064317	0.443717	-0.450160	-0.119162	
197	1.9700	0.021380	0.107708	0.153559	0.029629	-0.106458	0.229891	-0.000479	0.001061	-0.006511	0.001038	-0.142033	-0.071013	0.220161	0.011977	0.134393	0.168243	0.054091	0.064745	0.107035	0.031793	0.194165	0.111834	-0.086065	0.226690	0.024319	0.009862	-0.002664	0.231195	0.026303	0.095033	0.320085	-0.247549	0.024892	0.237443	-0.284672	-0.009388	0.408011	-0.496800	-0.064360	0.443691	-0.450120	-0.119163	
